<svg id="Layer_1" data-name="Layer 1" xmlns="http://www.w3.org/2000/svg" viewBox="0 0 982.49 763.01"><defs><style>.cls-1{fill:#e6e6e6;}.cls-2{fill:#3f3d56;}.cls-3{fill:#3f51b5;}.cls-4{fill:#fff;}.cls-5{fill:#ffb8b8;}.cls-6{fill:#27ae61;}.cls-7{fill:#f2f2f2;}.cls-8{fill:#2f2e41;}</style></defs><circle class="cls-1" cx="559.43" cy="333.06" r="40.03"/><path class="cls-2" d="M657.54,384.5l-41.83-41.83a44.31,44.31,0,0,0-13.31-61.23l-1.12-.7A44.31,44.31,0,1,0,602.4,356l41.83,41.83a9.41,9.41,0,0,0,13.31-13.31Zm-56.7-43.39a31.69,31.69,0,1,1,9.28-22.41A31.69,31.69,0,0,1,600.84,341.11Z" transform="translate(0 0)"/><path class="cls-1" d="M960.77,446.21c107,118.3-203.13,288.8-453.72,288.8S83.11,602.91,53.33,446.21C-18.86,66.26,668.41-175.23,507.05,157.4,271.86,642.25,876.52,353,960.77,446.21Z" transform="translate(0 0)"/><path class="cls-2" d="M912.77,474.21c107,118.3-203.13,288.8-453.72,288.8S35.11,630.91,5.33,474.21C-66.86,94.26,620.41-147.23,459.05,185.4,223.86,670.25,828.52,381,912.77,474.21Z" transform="translate(0 0)"/><path class="cls-3" d="M149.59,196.83C74.53,193.52,16.32,177.33,17.09,160c.46-10.41,21.7-18.78,58.28-23a1,1,0,1,1,.24,2h0c-34.46,3.94-56.12,12-56.51,21.07-.7,15.7,59.11,31.63,130.59,34.78s132.46-7.46,133.15-23.17c.4-9.09-20.6-19.06-54.8-26a1,1,0,0,1,.4-2h0c36.3,7.39,56.86,17.63,56.4,28.08C284.06,189.12,224.66,200.13,149.59,196.83Z" transform="translate(0 0)"/><path class="cls-3" d="M82.92,199.73a77,77,0,0,0,133,5.53A1213.46,1213.46,0,0,1,82.92,199.73Z" transform="translate(0 0)"/><path class="cls-3" d="M224.26,184.22a77,77,0,1,0-147.75-5.71A571.77,571.77,0,0,0,224.26,184.22Z" transform="translate(0 0)"/><path class="cls-3" d="M299.52,469.11c-21.88-1-38.84-5.68-38.61-10.74.13-3,6.32-5.48,17-6.69a.29.29,0,0,1,.33.25.3.3,0,0,1-.26.32h0c-10,1.15-16.35,3.51-16.47,6.14-.2,4.58,17.22,9.22,38.05,10.14s38.6-2.18,38.8-6.75c.12-2.65-6-5.56-16-7.59a.28.28,0,0,1-.22-.34.29.29,0,0,1,.34-.23h0c10.58,2.16,16.57,5.14,16.43,8.18C338.7,466.86,321.39,470.07,299.52,469.11Z" transform="translate(0 0)"/><path class="cls-3" d="M280.09,470a22.44,22.44,0,0,0,38.77,1.61A355.8,355.8,0,0,1,280.09,470Z" transform="translate(0 0)"/><path class="cls-3" d="M321.27,465.44a22.43,22.43,0,1,0-43-1.67A166.45,166.45,0,0,0,321.27,465.44Z" transform="translate(0 0)"/><circle class="cls-4" cx="168.83" cy="123.6" r="9"/><circle class="cls-4" cx="122.51" cy="152.59" r="15"/><circle class="cls-3" cx="348.9" cy="142.9" r="10"/><circle class="cls-1" cx="122.9" cy="452.9" r="6"/><circle class="cls-1" cx="542.9" cy="658.9" r="6"/><circle class="cls-1" cx="151.9" cy="339.9" r="3"/><circle class="cls-1" cx="399.9" cy="563.9" r="3"/><circle class="cls-1" cx="850.9" cy="534.9" r="3"/><circle class="cls-1" cx="709.9" cy="623.9" r="3"/><circle class="cls-1" cx="562.9" cy="515.9" r="3"/><circle class="cls-1" cx="372.9" cy="219.9" r="3"/><circle class="cls-1" cx="396.9" cy="71.9" r="3"/><circle class="cls-1" cx="382.9" cy="694.9" r="3"/><circle class="cls-1" cx="234.9" cy="631.9" r="3"/><circle class="cls-1" cx="703.9" cy="523.9" r="3"/><circle class="cls-4" cx="148.37" cy="224.8" r="9"/><ellipse class="cls-4" cx="294.4" cy="496.4" rx="33.5" ry="6.5"/><path class="cls-5" d="M816.85,317.92a11.47,11.47,0,0,0-.64,1.53l-47.78,13.27-8.61-8.42L745.4,335.63,759.2,352a8,8,0,0,0,9.35,2.17l51.62-22.79a10.49,10.49,0,1,0-2.64-14.6,8.9,8.9,0,0,0-.68,1.11Z" transform="translate(0 0)"/><path class="cls-6" d="M766.75,333.5l-17.94,14a4.49,4.49,0,0,1-6.31-.78,4.81,4.81,0,0,1-.37-.55L731,326.4a12.5,12.5,0,0,1,19.77-15.3l16.34,15.6a4.5,4.5,0,0,1,.15,6.36,5,5,0,0,1-.49.44Z" transform="translate(0 0)"/><path class="cls-2" d="M821.44,311.32l18.18,8.18a3.14,3.14,0,0,1,1.58,4.16l-2.15,4.79a1.06,1.06,0,0,1,.53,1.39l-.87,1.91a1,1,0,0,1-1.38.53l-.86,1.91a1.06,1.06,0,0,1,.52,1.39l-.86,1.92a1.06,1.06,0,0,1-1.39.52l-11.63,25.85a3.15,3.15,0,0,1-4.16,1.58l-18.19-8.18a3.17,3.17,0,0,1-1.58-4.17l18.09-40.2A3.15,3.15,0,0,1,821.44,311.32Z" transform="translate(0 0)"/><path class="cls-7" d="M804.07,354.72l14.59,6.57a3,3,0,0,0,4-1.51l6.74-15,2.34-5.2,6.1-13.56a3,3,0,0,0-1.51-4L831.73,320l-10-4.5a3,3,0,0,0-4,1.52l-5.9,13.11L805.11,345l-2.56,5.7A3,3,0,0,0,804.07,354.72Z" transform="translate(0 0)"/><polygon class="cls-5" points="773.58 540.44 785.84 540.44 791.67 493.15 773.58 493.15 773.58 540.44"/><path class="cls-8" d="M770.45,536.44H794.6A15.39,15.39,0,0,1,810,551.82h0v.5H770.45Z" transform="translate(0 0)"/><polygon class="cls-5" points="805.58 537.44 817.84 537.44 823.67 490.15 805.58 490.15 805.58 537.44"/><path class="cls-8" d="M802.45,533.44H826.6A15.39,15.39,0,0,1,842,548.82h0v.5H802.45Z" transform="translate(0 0)"/><path class="cls-8" d="M718.59,429.48a39.4,39.4,0,0,0,36.89,26.81h.63c6.32.18,13.75-1.86,21-4.79,14.4-5.79,28.23-15.06,31.9-17.61l-6.21,59.79-2.52,24.24a4.51,4.51,0,0,0,4,5l.44,0h15.53a4.51,4.51,0,0,0,4.36-3.36l25.64-97.65a19,19,0,0,0-19.71-23.83l-53.26,3.65,3.72-14.88-47.54-3.16-.13.1c-1.15.83-2.25,1.7-3.31,2.61a40.11,40.11,0,0,0-7,7.66A38.48,38.48,0,0,0,718.59,429.48Z" transform="translate(0 0)"/><path class="cls-8" d="M718.59,429.48a39.4,39.4,0,0,0,36.89,26.81,196.22,196.22,0,0,0,22.57-13.39l-.9,8.61-7.83,75.42a4.51,4.51,0,0,0,4,5l.44,0h15.53a4.51,4.51,0,0,0,4.36-3.36l9.16-34.85,16.48-62.8a19,19,0,0,0-19.71-23.83l-53.26,3.65,3.72-14.88-27-1.79A38.48,38.48,0,0,0,718.59,429.48Z" transform="translate(0 0)"/><path class="cls-3" d="M730,389.83l-.36-.05L721.36,349c-.07-.35-6.85-35.53,13.94-53.92l.36-2.52a4.52,4.52,0,0,1,5.1-3.82,5.73,5.73,0,0,1,.69.16L761,295a4.48,4.48,0,0,1,3,5.44l-1.9,7.24c2.64,3.1,33.71,40.51,22.89,69.33l-4.85,19Z" transform="translate(0 0)"/><path class="cls-5" d="M811.34,358a9.18,9.18,0,0,0-1.33,1l-47.9-12.86L759,334.5l-18.18,2.43,3.55,21.13a8,8,0,0,0,6.95,6.62l56,6.62a10.55,10.55,0,1,0,4-13.3Z" transform="translate(0 0)"/><path class="cls-3" d="M760.27,345.94l-22.55,2.91a4.5,4.5,0,0,1-5-3.89,4.87,4.87,0,0,1,0-.66l.43-22.66a12.5,12.5,0,0,1,24.8-3.12L764,340.26a4.49,4.49,0,0,1-3.11,5.55A3.63,3.63,0,0,1,760.27,345.94Z" transform="translate(0 0)"/><circle class="cls-5" cx="753.92" cy="258.8" r="24.56"/><path class="cls-8" d="M752.63,260.85l-3.08-5.59C743.73,279,754,298.63,754,298.63L714.08,280l.39-6.6-4,4.48-5.67-3.13-.75-4.28-4.29,1.06,15.64-28.38c15.19-27,37.26-16.7,37.26-16.7,35.11-1.67,30.83,33,30.83,33Z" transform="translate(0 0)"/><ellipse class="cls-2" cx="447.4" cy="403.9" rx="12.18" ry="47.5" transform="translate(-147.23 305.33) rotate(-32.66)"/></svg>